<svg id="Layer_1" data-name="Layer 1" xmlns="http://www.w3.org/2000/svg" viewBox="0 0 21.49 24.17"><defs><style>.cls-1{fill:#dfe4f0;}</style></defs><title>admin-users-light</title><path class="cls-1" d="M20.48,24.17a1,1,0,0,1-1-1A8.74,8.74,0,1,0,2,23.16a1,1,0,0,1-2,0,10.75,10.75,0,0,1,21.49,0,1,1,0,0,1-1,1Z" transform="translate(0 0)"/><path class="cls-1" d="M10.74,2A3.7,3.7,0,1,1,7.05,5.71h0A3.7,3.7,0,0,1,10.74,2m0-2a5.71,5.71,0,1,0,5.71,5.71A5.71,5.71,0,0,0,10.74,0Z" transform="translate(0 0)"/></svg>