<svg id="Responsive_Icons" data-name="Responsive Icons" xmlns="http://www.w3.org/2000/svg" viewBox="0 0 15.99 15.98"><title>admin-settings</title><path d="M15,5H13.16L14,3.47a1,1,0,0,0-.36-1.35l-3.44-2A1,1,0,0,0,8.89.5L8,2,7.1.5A1,1,0,0,0,5.75.13l-3.44,2A1,1,0,0,0,2,3.47L2.83,5H1A1,1,0,0,0,0,6v4a1,1,0,0,0,1,1H2.83L2,12.51a1,1,0,0,0,.36,1.36l3.44,2a1,1,0,0,0,1.35-.37L8,13.94l.89,1.54a1,1,0,0,0,1.35.37l3.44-2A1,1,0,0,0,14,12.51L13.16,11H15a1,1,0,0,0,1-1V6A1,1,0,0,0,15,5ZM14,9H12.38A4.52,4.52,0,0,1,11,11.29l.79,1.35-1.72,1-.78-1.35a4.56,4.56,0,0,1-2.67,0l-.78,1.35-1.72-1L5,11.29A4.52,4.52,0,0,1,3.61,9H2V7H3.61a4.53,4.53,0,0,1,1.33-2.3L4.16,3.34l1.72-1,.78,1.34a4.56,4.56,0,0,1,2.67,0l.78-1.34,1.72,1-.78,1.35A4.53,4.53,0,0,1,12.38,7H14Z"/><circle cx="8" cy="7.98" r="2"/></svg>