<svg id="Layer_1" data-name="Layer 1" xmlns="http://www.w3.org/2000/svg" viewBox="0 0 20.14 25.51"><title>lock</title><path d="M19.14,25.51H1a1,1,0,0,1-1-1V10.41a1,1,0,0,1,1-1H19.14a1,1,0,0,1,1,1v14.1A1,1,0,0,1,19.14,25.51ZM2,23.5H18.13V11.41H2Z" transform="translate(0 0)"/><path d="M16.11,11.41a1,1,0,0,1-1-1V7.05A5,5,0,1,0,5,7.05v3.36a1,1,0,0,1-2,0V7.05a7.05,7.05,0,0,1,14.1,0v3.36A1,1,0,0,1,16.11,11.41Z" transform="translate(0 0)"/><path d="M10.07,20.94a1,1,0,0,1-1-1v-4.7a1,1,0,0,1,2,0v4.7A1,1,0,0,1,10.07,20.94Z" transform="translate(0 0)"/></svg>