<svg id="Responsive_Icons" data-name="Responsive Icons" xmlns="http://www.w3.org/2000/svg" viewBox="0 0 16 16"><title>star-empty</title><path class="cls-1" d="M12.32,16a1,1,0,0,1-.48-.13L8,13.75,4.16,15.87a1,1,0,0,1-1.06-.06,1,1,0,0,1-.41-1l.74-4.56L.28,7A1,1,0,0,1,.85,5.36L5.16,4.7,7.09.58A1,1,0,0,1,8,0a1,1,0,0,1,.9.58L10.84,4.7l4.31.66a1,1,0,0,1,.79.67,1,1,0,0,1-.23,1l-3.14,3.23.74,4.56a1,1,0,0,1-1,1.17ZM8,11.6a1,1,0,0,1,.48.13L11,13.12l-.49-3a1,1,0,0,1,.27-.86L12.92,7,10,6.59A1,1,0,0,1,9.25,6L8,3.35,6.74,6A1,1,0,0,1,6,6.59L3.07,7,5.21,9.23a1,1,0,0,1,.28.86l-.5,3,2.52-1.39A1.09,1.09,0,0,1,8,11.6Z"/></svg>